<svg width="50" height="42" viewBox="0 0 50 42" fill="none" xmlns="http://www.w3.org/2000/svg">
<path d="M16.2109 27.4083H42.676C43.3314 27.4083 43.9063 27.0029 44.0837 26.4141L49.9434 7.22814C50.0693 6.81452 49.9831 6.37021 49.7057 6.02654C49.428 5.68394 48.9962 5.48159 48.5354 5.48159H12.8292L11.782 1.07348C11.6333 0.445736 11.0382 0 10.3515 0H1.46484C0.655363 0 0 0.613111 0 1.3704C0 2.12804 0.655363 2.7408 1.46484 2.7408H9.17585L14.4657 25.0098C12.9093 25.6429 11.8164 27.0921 11.8164 28.7787C11.8164 31.0456 13.7878 32.8899 16.2109 32.8899H42.676C43.4859 32.8899 44.1409 32.2772 44.1409 31.5195C44.1409 30.7622 43.4859 30.1491 42.676 30.1491H16.2109C15.4041 30.1491 14.7461 29.5349 14.7461 28.7787C14.7461 28.0225 15.4041 27.4083 16.2109 27.4083Z" fill="#272727"/>
<path d="M14.7461 37.0011C14.7461 39.2683 16.7175 41.1123 19.141 41.1123C21.5641 41.1123 23.5355 39.2683 23.5355 37.0011C23.5355 34.7342 21.5641 32.8899 19.141 32.8899C16.7175 32.8899 14.7461 34.7342 14.7461 37.0011Z" fill="#272727"/>
<path d="M35.3518 37.0011C35.3518 39.2683 37.3232 41.1123 39.7463 41.1123C42.1698 41.1123 44.1409 39.2683 44.1409 37.0011C44.1409 34.7342 42.1698 32.8899 39.7463 32.8899C37.3232 32.8899 35.3518 34.7342 35.3518 37.0011Z" fill="#272727"/>
</svg>
