<svg width="270" height="78" viewBox="0 0 270 78" fill="none" xmlns="http://www.w3.org/2000/svg">
<path d="M88.604 5.988C89.9 5.988 91.592 6.18 93.68 6.564L93.608 9.264C91.64 8.88 89.972 8.688 88.604 8.688C87.212 8.688 86.204 8.964 85.58 9.516C84.98 10.068 84.68 10.908 84.68 12.036V12.972C84.68 13.572 84.752 14.052 84.896 14.412C85.064 14.748 85.352 15.048 85.76 15.312C86.168 15.552 86.78 15.804 87.596 16.068L90.944 17.184C92.552 17.736 93.68 18.468 94.328 19.38C95 20.292 95.336 21.624 95.336 23.376V24.06C95.336 26.196 94.712 27.792 93.464 28.848C92.24 29.904 90.224 30.432 87.416 30.432C86.048 30.432 84.296 30.192 82.16 29.712L82.232 26.94C84.224 27.42 85.928 27.66 87.344 27.66C89.144 27.66 90.416 27.396 91.16 26.868C91.904 26.316 92.276 25.464 92.276 24.312V23.124C92.276 22.284 92.084 21.648 91.7 21.216C91.34 20.76 90.692 20.376 89.756 20.064L86.048 18.84C84.392 18.288 83.24 17.58 82.592 16.716C81.944 15.828 81.62 14.496 81.62 12.72V12.324C81.62 10.236 82.172 8.664 83.276 7.608C84.404 6.528 86.18 5.988 88.604 5.988ZM110.346 12C111.858 12 113.034 12.516 113.874 13.548C114.714 14.58 115.134 16.068 115.134 18.012V24.42C115.134 26.292 114.642 27.768 113.658 28.848C112.698 29.904 111.39 30.432 109.734 30.432C109.11 30.432 108.438 30.3 107.718 30.036C107.022 29.796 106.374 29.508 105.774 29.172V36.66H102.714V12.432H105.594V14.988C106.914 12.996 108.498 12 110.346 12ZM109.734 14.736C109.038 14.736 108.33 15 107.61 15.528C106.914 16.032 106.302 16.728 105.774 17.616V26.436C106.278 26.844 106.83 27.168 107.43 27.408C108.054 27.624 108.618 27.732 109.122 27.732C111.09 27.732 112.074 26.484 112.074 23.988V18.444C112.074 15.972 111.294 14.736 109.734 14.736ZM128.658 12C130.722 12 132.222 12.468 133.158 13.404C134.118 14.316 134.598 15.78 134.598 17.796V30H131.682V27.192C130.29 29.352 128.718 30.432 126.966 30.432C125.574 30.432 124.458 29.952 123.618 28.992C122.802 28.032 122.394 26.724 122.394 25.068V24.06C122.394 22.62 122.886 21.432 123.87 20.496C124.854 19.536 126.174 19.056 127.83 19.056C128.742 19.056 129.978 19.212 131.538 19.524V17.544C131.538 16.512 131.298 15.768 130.818 15.312C130.362 14.856 129.642 14.628 128.658 14.628C127.506 14.628 125.886 14.808 123.798 15.168V12.54C126.054 12.18 127.674 12 128.658 12ZM128.586 21.432C127.578 21.432 126.81 21.696 126.282 22.224C125.754 22.752 125.49 23.496 125.49 24.456V24.852C125.49 25.74 125.694 26.436 126.102 26.94C126.51 27.444 127.026 27.696 127.65 27.696C128.298 27.696 128.958 27.42 129.63 26.868C130.326 26.292 130.962 25.488 131.538 24.456V21.684C130.626 21.516 129.642 21.432 128.586 21.432ZM149.222 12C150.302 12 151.526 12.156 152.894 12.468L152.822 15.168C151.43 14.856 150.23 14.7 149.222 14.7C148.094 14.7 147.23 15.012 146.63 15.636C146.054 16.26 145.766 17.148 145.766 18.3V24.096C145.766 25.296 146.066 26.208 146.666 26.832C147.29 27.432 148.142 27.732 149.222 27.732C149.894 27.732 150.482 27.696 150.986 27.624C151.49 27.552 152.102 27.432 152.822 27.264L152.894 29.964C151.43 30.276 150.194 30.432 149.186 30.432C144.866 30.432 142.706 28.248 142.706 23.88V18.552C142.706 14.184 144.878 12 149.222 12ZM166.453 12C168.469 12 170.005 12.552 171.061 13.656C172.117 14.76 172.645 16.356 172.645 18.444V22.152H163.393V24.276C163.393 25.5 163.681 26.388 164.257 26.94C164.857 27.468 165.793 27.732 167.065 27.732C168.313 27.732 169.873 27.54 171.745 27.156L171.817 29.82C169.585 30.228 167.989 30.432 167.029 30.432C164.653 30.432 162.937 29.916 161.881 28.884C160.849 27.852 160.333 26.256 160.333 24.096V18.444C160.333 16.356 160.837 14.76 161.845 13.656C162.877 12.552 164.413 12 166.453 12ZM166.453 14.556C165.517 14.556 164.773 14.856 164.221 15.456C163.669 16.032 163.393 16.872 163.393 17.976V19.704H169.585V18.084C169.585 16.932 169.297 16.056 168.721 15.456C168.169 14.856 167.413 14.556 166.453 14.556ZM88.28 51C90.296 51 91.832 51.552 92.888 52.656C93.944 53.76 94.472 55.356 94.472 57.444V61.152H85.22V63.276C85.22 64.5 85.508 65.388 86.084 65.94C86.684 66.468 87.62 66.732 88.892 66.732C90.14 66.732 91.7 66.54 93.572 66.156L93.644 68.82C91.412 69.228 89.816 69.432 88.856 69.432C86.48 69.432 84.764 68.916 83.708 67.884C82.676 66.852 82.16 65.256 82.16 63.096V57.444C82.16 55.356 82.664 53.76 83.672 52.656C84.704 51.552 86.24 51 88.28 51ZM88.28 53.556C87.344 53.556 86.6 53.856 86.048 54.456C85.496 55.032 85.22 55.872 85.22 56.976V58.704H91.412V57.084C91.412 55.932 91.124 55.056 90.548 54.456C89.996 53.856 89.24 53.556 88.28 53.556ZM109.89 44.988C110.826 44.988 111.834 45.084 112.914 45.276C114.018 45.444 114.666 45.54 114.858 45.564L114.786 48.264C112.674 47.88 111.042 47.688 109.89 47.688C108.258 47.688 107.082 48.024 106.362 48.696C105.642 49.368 105.282 50.484 105.282 52.044V62.34C105.282 63.9 105.63 65.016 106.326 65.688C107.046 66.336 108.234 66.66 109.89 66.66C111.042 66.66 112.674 66.468 114.786 66.084L114.858 68.856C114.666 68.88 114.018 68.976 112.914 69.144C111.834 69.336 110.826 69.432 109.89 69.432C107.13 69.432 105.162 68.844 103.986 67.668C102.81 66.492 102.222 64.656 102.222 62.16V52.26C102.222 49.764 102.81 47.928 103.986 46.752C105.162 45.576 107.13 44.988 109.89 44.988ZM128.567 51C130.703 51 132.287 51.576 133.319 52.728C134.375 53.856 134.903 55.464 134.903 57.552V62.88C134.903 64.968 134.375 66.588 133.319 67.74C132.287 68.868 130.703 69.432 128.567 69.432C126.431 69.432 124.835 68.868 123.779 67.74C122.747 66.588 122.231 64.968 122.231 62.88V57.552C122.231 55.464 122.747 53.856 123.779 52.728C124.835 51.576 126.431 51 128.567 51ZM128.567 53.556C127.535 53.556 126.731 53.88 126.155 54.528C125.579 55.176 125.291 56.1 125.291 57.3V63.132C125.291 64.332 125.579 65.256 126.155 65.904C126.731 66.552 127.535 66.876 128.567 66.876C129.599 66.876 130.403 66.552 130.979 65.904C131.555 65.256 131.843 64.332 131.843 63.132V57.264C131.843 56.064 131.555 55.152 130.979 54.528C130.403 53.88 129.599 53.556 128.567 53.556ZM160.056 51C161.592 51 162.768 51.528 163.584 52.584C164.4 53.616 164.808 55.092 164.808 57.012V69H161.748V57.444C161.748 55.044 160.98 53.844 159.444 53.844C158.772 53.844 158.076 54.108 157.356 54.636C156.66 55.164 156.048 55.884 155.52 56.796V69H152.46V57.444C152.46 55.044 151.692 53.844 150.156 53.844C149.484 53.844 148.788 54.108 148.068 54.636C147.372 55.164 146.76 55.884 146.232 56.796V69H143.172V51.432H146.052V54.06C146.676 53.076 147.396 52.32 148.212 51.792C149.028 51.264 149.88 51 150.768 51C151.872 51 152.796 51.288 153.54 51.864C154.284 52.416 154.824 53.232 155.16 54.312C155.808 53.232 156.552 52.416 157.392 51.864C158.232 51.288 159.12 51 160.056 51ZM190.339 51C191.875 51 193.051 51.528 193.867 52.584C194.683 53.616 195.091 55.092 195.091 57.012V69H192.031V57.444C192.031 55.044 191.263 53.844 189.727 53.844C189.055 53.844 188.359 54.108 187.639 54.636C186.943 55.164 186.331 55.884 185.803 56.796V69H182.743V57.444C182.743 55.044 181.975 53.844 180.439 53.844C179.767 53.844 179.071 54.108 178.351 54.636C177.655 55.164 177.043 55.884 176.515 56.796V69H173.455V51.432H176.335V54.06C176.959 53.076 177.679 52.32 178.495 51.792C179.311 51.264 180.163 51 181.051 51C182.155 51 183.079 51.288 183.823 51.864C184.567 52.416 185.107 53.232 185.443 54.312C186.091 53.232 186.835 52.416 187.675 51.864C188.515 51.288 189.403 51 190.339 51ZM209.499 51C211.515 51 213.051 51.552 214.107 52.656C215.163 53.76 215.691 55.356 215.691 57.444V61.152H206.439V63.276C206.439 64.5 206.727 65.388 207.303 65.94C207.903 66.468 208.839 66.732 210.111 66.732C211.359 66.732 212.919 66.54 214.791 66.156L214.863 68.82C212.631 69.228 211.035 69.432 210.075 69.432C207.699 69.432 205.983 68.916 204.927 67.884C203.895 66.852 203.379 65.256 203.379 63.096V57.444C203.379 55.356 203.883 53.76 204.891 52.656C205.923 51.552 207.459 51 209.499 51ZM209.499 53.556C208.563 53.556 207.819 53.856 207.267 54.456C206.715 55.032 206.439 55.872 206.439 56.976V58.704H212.631V57.084C212.631 55.932 212.343 55.056 211.767 54.456C211.215 53.856 210.459 53.556 209.499 53.556ZM231.108 51C231.444 51 231.708 51.024 231.9 51.072V54.528C231.54 54.456 231.072 54.42 230.496 54.42C228.816 54.42 227.484 55.26 226.5 56.94V69H223.44V51.432H226.32V54.06C226.968 53.076 227.688 52.32 228.48 51.792C229.296 51.264 230.172 51 231.108 51ZM244.657 51C245.737 51 246.961 51.156 248.329 51.468L248.257 54.168C246.865 53.856 245.665 53.7 244.657 53.7C243.529 53.7 242.665 54.012 242.065 54.636C241.489 55.26 241.201 56.148 241.201 57.3V63.096C241.201 64.296 241.501 65.208 242.101 65.832C242.725 66.432 243.577 66.732 244.657 66.732C245.329 66.732 245.917 66.696 246.421 66.624C246.925 66.552 247.537 66.432 248.257 66.264L248.329 68.964C246.865 69.276 245.629 69.432 244.621 69.432C240.301 69.432 238.141 67.248 238.141 62.88V57.552C238.141 53.184 240.313 51 244.657 51ZM261.889 51C263.905 51 265.441 51.552 266.497 52.656C267.553 53.76 268.081 55.356 268.081 57.444V61.152H258.829V63.276C258.829 64.5 259.117 65.388 259.693 65.94C260.293 66.468 261.229 66.732 262.501 66.732C263.749 66.732 265.309 66.54 267.181 66.156L267.253 68.82C265.021 69.228 263.425 69.432 262.465 69.432C260.089 69.432 258.373 68.916 257.317 67.884C256.285 66.852 255.769 65.256 255.769 63.096V57.444C255.769 55.356 256.273 53.76 257.281 52.656C258.313 51.552 259.849 51 261.889 51ZM261.889 53.556C260.953 53.556 260.209 53.856 259.657 54.456C259.105 55.032 258.829 55.872 258.829 56.976V58.704H265.021V57.084C265.021 55.932 264.733 55.056 264.157 54.456C263.605 53.856 262.849 53.556 261.889 53.556Z" fill="#272727"/>
<g clip-path="url(#clip0)">
<path d="M17.5159 41.2141L20.6785 38.0514L29.0431 46.4161L25.8805 49.5787L17.5159 41.2141Z" fill="#272727"/>
<path d="M36.4109 47.7674C37.1909 50.3029 36.5101 53.0433 34.6344 54.9192L33.1115 56.442L35.4869 58.8174L43.1883 51.1162C45.2544 49.0499 46.3936 46.1897 46.3137 43.2688L46.2079 39.4023L36.325 47.488L36.4109 47.7674Z" fill="#272727"/>
<path d="M23.7291 20.6841C20.8074 20.6049 17.948 21.7434 15.8817 23.8096L8.18048 31.5109L10.5559 33.8863L12.0787 32.3635C13.9545 30.4876 16.695 29.8071 19.2305 30.5868L19.5105 30.6729L27.6081 20.7902L23.7291 20.6841Z" fill="#272727"/>
<path d="M0.16571 54.3235L2.54083 51.9484L4.91588 54.3234L2.54075 56.6986L0.16571 54.3235Z" fill="#272727"/>
<path d="M4.92712 49.5636L12.6515 41.8393L15.0265 44.2143L7.30217 51.9387L4.92712 49.5636Z" fill="#272727"/>
<path d="M10.2886 64.4485L12.6637 62.0734L15.0387 64.4485L12.6637 66.8235L10.2886 64.4485Z" fill="#272727"/>
<path d="M15.0499 59.6888L22.7741 51.9645L25.1492 54.3396L17.4249 62.0638L15.0499 59.6888Z" fill="#272727"/>
<path d="M-0.00482178 64.618L14.0868 50.5263L16.4619 52.9014L2.37022 66.993L-0.00482178 64.618Z" fill="#272727"/>
<path d="M50.8198 16.1722C52.4004 17.7528 54.6309 18.5075 56.8408 18.2254C57.0992 16.0412 57.0464 13.8004 56.6573 11.5656L56.4662 10.5196L55.4216 10.339C53.1882 9.95281 50.9483 9.90271 48.7651 10.1636C48.4875 12.3692 49.2428 14.5953 50.8198 16.1722Z" fill="#272727"/>
<path d="M55.9288 21.624C53.1513 21.624 50.4516 20.5275 48.4581 18.5339C46.41 16.4859 45.3087 13.69 45.3713 10.8316C40.7217 12.117 36.5108 14.8575 33.4189 18.7926L21.0662 33.8681L33.1292 45.9311L48.1914 33.6081C52.1439 30.5085 54.8932 26.284 56.1771 21.6187C56.0942 21.6207 56.0114 21.624 55.9288 21.624ZM44.2072 30.1508C43.1926 31.1655 41.8598 31.6728 40.5271 31.6728C39.1944 31.6728 37.8616 31.1655 36.847 30.1509C34.8179 28.1216 34.8179 24.82 36.847 22.7907C38.8765 20.7614 42.1782 20.7615 44.2073 22.7907C46.2364 24.8198 46.2364 28.1216 44.2072 30.1508Z" fill="#272727"/>
<path d="M40.4943 28.3299C41.53 28.3299 42.3695 27.4904 42.3695 26.4547C42.3695 25.4191 41.53 24.5795 40.4943 24.5795C39.4586 24.5795 38.6191 25.4191 38.6191 26.4547C38.6191 27.4904 39.4586 28.3299 40.4943 28.3299Z" fill="#272727"/>
</g>
<defs>
<clipPath id="clip0">
<rect width="57" height="57" fill="white" transform="translate(0 10)"/>
</clipPath>
</defs>
</svg>
