<svg width="40" height="40" viewBox="0 0 40 40" fill="none" xmlns="http://www.w3.org/2000/svg">
<path d="M38.722 36.4337L29.202 26.5323C31.6498 23.6225 32.9909 19.9614 32.9909 16.15C32.9909 7.24502 25.7459 0 16.8409 0C7.93596 0 0.690933 7.24502 0.690933 16.15C0.690933 25.0549 7.93596 32.3 16.8409 32.3C20.184 32.3 23.3697 31.2916 26.0935 29.3775L35.6858 39.354C36.0868 39.7704 36.6261 40 37.2039 40C37.7509 40 38.2698 39.7915 38.6638 39.4123C39.5007 38.6069 39.5274 37.2714 38.722 36.4337ZM16.8409 4.21304C23.4231 4.21304 28.7779 9.56781 28.7779 16.15C28.7779 22.7322 23.4231 28.0869 16.8409 28.0869C10.2587 28.0869 4.90397 22.7322 4.90397 16.15C4.90397 9.56781 10.2587 4.21304 16.8409 4.21304Z" fill="#EBEBEB"/>
</svg>
